<?xml version="1.0"?>
<svg width="2261" height="568" xmlns="http://www.w3.org/2000/svg" xmlns:svg="http://www.w3.org/2000/svg" clip-rule="evenodd">
 <defs>
  <style type="text/css">
   <![CDATA[
    .str0 {stroke:#B8394B;stroke-width:0.40512;stroke-linejoin:round}
    .fil0 {fill:white}
    .fil1 {fill:#B8394B}
   ]]>
  </style>
 </defs>
 <g>
  <title>Layer 1</title>
  <g stroke="null" id="Слой_x0020_1">
   <metadata stroke="null" transform="translate(-785.9219360351562,319.11279296875) translate(910.2222290039062,1318.9793701171875) translate(5663.60498046875,-1488.9437255859375) translate(-6676.9052734375,-3214.1484375) translate(-5787.9052734375,-149.1484375) scale(0.2982238233089447) translate(5787.9052734375,149.1484375) " id="CorelCorpID_0Corel-Layer"/>
   <path stroke="null" id="svg_1" d="m644.759906,491.472861c2.385791,57.557198 51.592721,76.345299 101.992548,76.345299c49.505155,0 99.010309,-18.489877 99.010309,-75.748851c0,-40.260216 -33.997516,-52.785617 -68.889703,-60.83766c-33.997516,-7.753819 -67.398584,-10.736058 -67.398584,-32.208173c0,-17.595206 19.682772,-19.980996 33.102844,-19.980996c21.472115,0 39.067321,6.2627 40.55844,29.225935l56.662526,0c-4.473357,-53.083841 -48.312259,-69.187927 -95.729847,-69.187927c-46.522916,0 -94.238728,14.314744 -94.238728,69.784375c0,38.172649 34.29574,50.101602 68.889703,57.855422c42.646007,9.244939 67.398584,15.507639 67.398584,33.401068c0,21.173891 -21.770339,27.734816 -39.067321,27.734816c-23.559682,0 -45.330021,-10.437834 -45.628245,-36.383306l-56.662526,0l0,0zm229.33412,70.380822l59.644765,0l0,-216.80872l-59.644765,0l0,216.80872zm0,-250.508012l59.644765,0l0,-48.908707l-59.644765,0l0,48.908707l0,0zm87.677804,250.508012l59.644765,0l0,-125.850453c0,-42.347783 28.629487,-49.803378 40.260216,-49.803378c37.874426,0 36.085083,28.927711 36.085083,53.978512l0,121.67532l59.644765,0l0,-120.780648c0,-27.436592 6.2627,-54.873183 39.663769,-54.873183c33.997516,0 36.68153,23.857906 36.68153,52.785617l0,122.868215l59.644765,0l0,-145.235002c0,-56.066079 -33.102844,-77.538194 -79.327537,-77.538194c-30.41883,0 -53.083841,17.296982 -65.609241,36.085083c-11.630729,-25.945473 -36.085083,-36.085083 -63.223451,-36.085083c-28.033039,0 -50.69805,13.121848 -66.205689,35.190411l-0.894671,0l0,-29.225935l-56.364303,0l0,216.80872l0,0zm342.659173,-108.255248c0,68.889703 44.137126,114.219724 112.132158,114.219724c68.293256,0 112.430381,-45.330021 112.430381,-114.219724c0,-69.187927 -44.137126,-114.517948 -112.430381,-114.517948c-67.995032,0 -112.132158,45.330021 -112.132158,114.517948zm59.644765,0c0,-34.892187 12.227177,-69.486151 52.487393,-69.486151c40.55844,0 52.785617,34.593964 52.785617,69.486151c0,34.593964 -12.227177,69.187927 -52.785617,69.187927c-40.260216,0 -52.487393,-34.593964 -52.487393,-69.187927zm186.986337,108.255248l59.644765,0l0,-113.623277c0,-44.137126 13.718296,-62.030555 46.224693,-62.030555c27.734816,0 38.172649,17.595206 38.172649,53.083841l0,122.569991l59.644765,0l0,-133.306049c0,-53.680288 -16.104086,-89.467147 -79.327537,-89.467147c-25.349025,0 -51.294498,11.630729 -66.503913,36.085083l-1.192895,0l0,-30.120606l-56.662526,0l0,216.80872zm442.26593,-93.940504c4.175134,-66.802136 -31.611725,-128.832692 -105.27301,-128.832692c-65.907465,0 -110.939262,49.505155 -110.939262,114.517948c0,67.10036 42.347783,114.219724 110.939262,114.219724c48.908707,0 84.695566,-21.770339 101.3961,-73.064837l-52.487393,0c-3.578686,13.420072 -22.963234,28.033039 -46.82114,28.033039c-33.401068,0 -51.592721,-16.998758 -53.382064,-54.873183l156.567507,0zm-156.567507,-37.874426c0.894671,-16.700534 11.630729,-45.926469 49.505155,-45.926469c28.927711,0 42.049559,15.805863 47.417588,45.926469l-96.922743,0zm181.320085,131.81493l59.644765,0l0,-299.416719l-59.644765,0l0,299.416719l0,0zm91.852938,0l59.346541,0l0,-299.416719l-59.346541,0l0,299.416719l0,0zm91.852938,0l59.346541,0l0,-216.80872l-59.346541,0l0,216.80872zm0,-250.508012l59.346541,0l0,-48.908707l-59.346541,0l0,48.908707l0,0zm-1546.588748,-88.572476l59.644765,0l0,-113.623277c0,-44.137126 13.718296,-62.030555 46.224693,-62.030555c27.734816,0 38.172649,17.595206 38.172649,53.083841l0,122.569991l59.346541,0l0,-133.306049c0,-53.680288 -15.805863,-89.467147 -79.029313,-89.467147c-25.349025,0 -51.294498,11.928953 -66.503913,36.085083l-1.192895,0l0,-30.120606l-56.662526,0l0,216.80872zm427.652963,-216.80872l-59.644765,0l0,113.623277c0,44.137126 -14.01652,62.030555 -46.224693,62.030555c-27.734816,0 -38.172649,-17.595206 -38.172649,-53.083841l0,-122.569991l-59.644765,0l0,133.306049c0,53.680288 16.104086,89.467147 79.327537,89.467147c25.349025,0 51.294498,-11.630729 66.205689,-36.085083l1.491119,0l0,30.120606l56.662526,0l0,-216.80872l0,0zm9.543162,108.553472c0,68.889703 43.838902,114.219724 111.833934,114.219724c68.591479,0 112.430381,-45.330021 112.430381,-114.219724c0,-69.187927 -43.838902,-114.517948 -112.430381,-114.517948c-67.995032,0 -111.833934,45.330021 -111.833934,114.517948zm59.346541,0c0,-34.593964 12.227177,-69.486151 52.487393,-69.486151c40.856664,0 53.083841,34.892187 53.083841,69.486151c0,34.593964 -12.227177,69.187927 -53.083841,69.187927c-40.260216,0 -52.487393,-34.593964 -52.487393,-69.187927zm372.183331,-108.553472l-59.048317,0l-45.926469,148.21724l-0.894671,0l-45.628245,-148.21724l-62.328779,0l74.257732,216.80872l66.205689,0l73.363061,-216.80872l0,0zm126.446901,133.007825c0,13.121848 -1.491119,49.803378 -48.014036,49.803378c-19.384549,0 -36.68153,-5.368029 -36.68153,-27.436592c0,-22.068563 16.998758,-28.331263 35.190411,-31.909949c18.489877,-3.578686 39.663769,-3.87691 49.505155,-12.823624l0,22.366787l0,0zm-77.836418,-66.205689c2.087567,-23.559682 16.700534,-32.804621 39.365545,-32.804621c20.875668,0 38.470873,3.87691 38.470873,29.225935c0,24.454354 -33.699292,23.261458 -70.380822,28.629487c-36.979754,5.069805 -73.959508,16.700534 -73.959508,65.907465c0,44.43535 32.804621,65.012793 73.959508,65.012793c26.54192,0 54.276736,-7.157372 73.064837,-26.840144c0.298224,7.157372 2.087567,14.314744 4.175134,20.875668l60.539436,0c-5.666253,-8.648491 -7.753819,-28.331263 -7.753819,-48.014036l0,-113.026829c0,-51.890945 -51.890945,-61.732331 -95.1334,-61.732331c-48.610483,0 -98.712086,16.998758 -101.992548,72.766613l59.644765,0z" class="fil0"/>
   <path stroke="null" id="svg_2" d="m450.616197,114.219724l-254.384921,0l0,2.982238l269.296112,253.49025c5.964476,4.771581 9.841386,9.244939 15.805863,12.823624c2.385791,-7.753819 2.385791,-26.54192 2.385791,-26.54192l0,-344.74674l100.799652,0l-0.298224,450.914421c-7.455596,39.067321 -38.172649,80.222208 -79.327537,88.870699c-29.225935,5.069805 -37.277978,4.473357 -37.277978,4.473357l-333.116011,0l0,-97.817414l263.033412,0l1.192895,-0.894671l-36.979754,-37.277978l-255.87604,-238.579059l-2.087567,6.2627l0,368.008198c-34.892187,0 -68.591479,0.298224 -103.781891,0.298224l0,-444.353497c3.578686,-35.190411 21.770339,-68.889703 53.978512,-87.081356c14.911191,-7.753819 31.909949,-10.736058 48.908707,-13.718296l347.728978,0l0,102.887219z" class="fil1 str0"/>
  </g>
 </g>
</svg>